<svg xmlns="http://www.w3.org/2000/svg" width="20" height="20" viewBox="0 0 20 20" fill="none">
  <path
    d="M14.1922 10.4422L7.94219 16.6922C7.88412 16.7502 7.81518 16.7963 7.73931 16.8277C7.66344 16.8592 7.58212 16.8753 7.5 16.8753C7.41788 16.8753 7.33656 16.8592 7.26069 16.8277C7.18482 16.7963 7.11588 16.7502 7.05781 16.6922C6.99974 16.6341 6.95368 16.5652 6.92225 16.4893C6.89083 16.4134 6.87465 16.3321 6.87465 16.25C6.87465 16.1679 6.89083 16.0865 6.92225 16.0107C6.95368 15.9348 6.99974 15.8659 7.05781 15.8078L12.8664 9.99998L7.05781 4.19217C6.94054 4.07489 6.87465 3.91583 6.87465 3.74998C6.87465 3.58413 6.94054 3.42507 7.05781 3.30779C7.17509 3.19052 7.33415 3.12463 7.5 3.12463C7.66585 3.12463 7.82491 3.19052 7.94219 3.30779L14.1922 9.55779C14.2503 9.61584 14.2964 9.68477 14.3279 9.76064C14.3593 9.83652 14.3755 9.91785 14.3755 9.99998C14.3755 10.0821 14.3593 10.1634 14.3279 10.2393C14.2964 10.3152 14.2503 10.3841 14.1922 10.4422Z"
    fill="currentColor"
  />
</svg>
