<svg xmlns="http://www.w3.org/2000/svg" width="22" height="20" viewBox="0 0 22 20" fill="none">
  <g filter="url(#filter0_i_1063_19)">
    <path d="M1.26487 9.28528C2.39027 7.5033 5.74014 3 10.8442 3C15.9492 3 19.299 7.50484 20.4244 9.28682C20.5607 9.5025 20.6288 9.61034 20.6669 9.77667C20.6955 9.90159 20.6955 10.0987 20.6668 10.2236C20.6287 10.3899 20.5601 10.4985 20.4229 10.7156C19.2975 12.4975 15.9492 17 10.8442 17C5.73916 17 2.38929 12.4952 1.26388 10.7132C1.12768 10.4975 1.05958 10.3897 1.02146 10.2234C0.992836 10.0984 0.992847 9.9014 1.02149 9.77648C1.05962 9.61016 1.12804 9.50187 1.26487 9.28528Z" stroke="#EDEDED" stroke-width="2" stroke-linecap="round" stroke-linejoin="round"/>
    <circle cx="10.8442" cy="10" r="3" stroke="#EDEDED" stroke-width="2"/>
  </g>
  <defs>
    <filter id="filter0_i_1063_19" x="0" y="0" width="21.6883" height="24" filterUnits="userSpaceOnUse" color-interpolation-filters="sRGB">
      <feFlood flood-opacity="0" result="BackgroundImageFix"/>
      <feBlend mode="normal" in="SourceGraphic" in2="BackgroundImageFix" result="shape"/>
      <feColorMatrix in="SourceAlpha" type="matrix" values="0 0 0 0 0 0 0 0 0 0 0 0 0 0 0 0 0 0 127 0" result="hardAlpha"/>
      <feOffset dy="4"/>
      <feGaussianBlur stdDeviation="2"/>
      <feComposite in2="hardAlpha" operator="arithmetic" k2="-1" k3="1"/>
      <feColorMatrix type="matrix" values="0 0 0 0 0 0 0 0 0 0 0 0 0 0 0 0 0 0 0.17 0"/>
      <feBlend mode="normal" in2="shape" result="effect1_innerShadow_1063_19"/>
    </filter>
  </defs>
</svg>
